<svg width="431" height="292" viewBox="0 0 431 292" fill="none" xmlns="http://www.w3.org/2000/svg">
<rect x="2.08909" y="57.726" width="97" height="97" rx="8.5" transform="rotate(-35 2.08909 57.726)" stroke="white" stroke-width="3"/>
<rect x="18.6387" y="65.6702" width="77" height="17" rx="3.5" transform="rotate(-35 18.6387 65.6702)" stroke="white" stroke-width="3"/>
<rect x="32.4045" y="85.3299" width="35" height="17" rx="3.5" transform="rotate(-35 32.4045 85.3299)" stroke="white" stroke-width="3"/>
<rect x="46.1704" y="104.99" width="60" height="17" rx="3.5" transform="rotate(-35 46.1704 104.99)" stroke="white" stroke-width="3"/>
<rect x="293.46" y="112.097" width="97" height="97" rx="8.5" transform="rotate(-35 293.46 112.097)" stroke="white" stroke-width="3"/>
<rect x="310.009" y="120.041" width="77" height="17" rx="3.5" transform="rotate(-35 310.009 120.041)" stroke="white" stroke-width="3"/>
<rect x="323.775" y="139.7" width="35" height="17" rx="3.5" transform="rotate(-35 323.775 139.7)" stroke="white" stroke-width="3"/>
<rect x="337.541" y="159.36" width="60" height="17" rx="3.5" transform="rotate(-35 337.541 159.36)" stroke="white" stroke-width="3"/>
<rect x="177.282" y="97.1847" width="45.1597" height="45.1597" rx="3.95729" transform="rotate(-35 177.282 97.1847)" stroke="white" stroke-width="1.39669"/>
<rect x="184.987" y="100.883" width="35.8484" height="7.91458" rx="1.62947" transform="rotate(-35 184.987 100.883)" stroke="white" stroke-width="1.39669"/>
<rect x="191.396" y="110.036" width="16.2947" height="7.91458" rx="1.62947" transform="rotate(-35 191.396 110.036)" stroke="white" stroke-width="1.39669"/>
<rect x="197.805" y="119.189" width="27.9338" height="7.91458" rx="1.62947" transform="rotate(-35 197.805 119.189)" stroke="white" stroke-width="1.39669"/>
<rect x="91.6969" y="155.256" width="32.3576" height="32.3576" rx="2.83546" transform="rotate(-35 91.6969 155.256)" stroke="white" stroke-width="1.00075"/>
<rect x="97.2176" y="157.907" width="25.6859" height="5.67092" rx="1.16754" transform="rotate(-35 97.2176 157.907)" stroke="white" stroke-width="1.00075"/>
<rect x="101.81" y="164.465" width="11.6754" height="5.67092" rx="1.16754" transform="rotate(-35 101.81 164.465)" stroke="white" stroke-width="1.00075"/>
<rect x="106.402" y="171.023" width="20.015" height="5.67092" rx="1.16754" transform="rotate(-35 106.402 171.023)" stroke="white" stroke-width="1.00075"/>
<rect x="146.46" y="210.097" width="97" height="97" rx="8.5" transform="rotate(-35 146.46 210.097)" stroke="white" stroke-width="3"/>
<rect x="163.009" y="218.041" width="77" height="17" rx="3.5" transform="rotate(-35 163.009 218.041)" stroke="white" stroke-width="3"/>
<rect x="176.775" y="237.7" width="35" height="17" rx="3.5" transform="rotate(-35 176.775 237.7)" stroke="white" stroke-width="3"/>
<rect x="190.541" y="257.36" width="60" height="17" rx="3.5" transform="rotate(-35 190.541 257.36)" stroke="white" stroke-width="3"/>
</svg>
