<svg width="1000" height="1000" viewBox="0 0 1000 1000" fill="none" xmlns="http://www.w3.org/2000/svg">
<path fill-rule="evenodd" clip-rule="evenodd" d="M0 50.1496C12.831 12.7769 78.3096 0.862429 100 50.1496C78.3096 99.4368 12.831 87.5223 0 50.1496ZM49.8987 75.3024C63.6777 75.3024 74.8478 64.1323 74.8478 50.3533C74.8478 36.5743 63.6777 25.4043 49.8987 25.4043C36.1197 25.4043 24.9496 36.5743 24.9496 50.3533C24.9496 64.1323 36.1197 75.3024 49.8987 75.3024Z" fill="#3A75AF"/>
<circle cx="50.1029" cy="50.0865" r="16.2933" fill="#3A75AF"/>
<path fill-rule="evenodd" clip-rule="evenodd" d="M100 49.6496C112.831 12.2769 178.31 0.362429 200 49.6496C178.31 98.9368 112.831 87.0223 100 49.6496ZM149.899 74.8024C163.678 74.8024 174.848 63.6323 174.848 49.8533C174.848 36.0743 163.678 24.9043 149.899 24.9043C136.12 24.9043 124.95 36.0743 124.95 49.8533C124.95 63.6323 136.12 74.8024 149.899 74.8024Z" fill="#3A75AF"/>
<circle cx="150.103" cy="49.5865" r="16.2933" fill="#3A75AF"/>
<line x1="116.645" y1="81.2861" x2="180.289" y2="17.643" stroke="#3A75AF" stroke-width="10" stroke-linecap="round" stroke-linejoin="round"/>
<path d="M350 100C377.614 100 400 77.6142 400 50C400 22.3858 377.614 0 350 0C322.386 0 300 22.3858 300 50C300 77.6142 322.386 100 350 100Z" fill="#E81515"/>
<path d="M328.586 64.5565L364.615 28.5268C366.139 27.0028 368.621 27.0028 370.145 28.5268L371.532 29.9141C373.056 31.4381 373.056 33.9195 371.532 35.4436L335.502 71.4733C333.978 72.9973 331.497 72.9973 329.973 71.4733L328.586 70.086C327.061 68.562 327.061 66.0805 328.586 64.5565Z" fill="white"/>
<path d="M335.502 28.5268L371.532 64.5565C373.056 66.0805 373.056 68.562 371.532 70.086L370.145 71.4733C368.621 72.9973 366.139 72.9973 364.615 71.4733L328.586 35.4436C327.061 33.9195 327.061 31.4381 328.586 29.9141L329.973 28.5268C331.497 27.0028 333.978 27.0028 335.502 28.5268Z" fill="white"/>
<path d="M250 100C277.614 100 300 77.6142 300 50C300 22.3858 277.614 0 250 0C222.386 0 200 22.3858 200 50C200 77.6142 222.386 100 250 100Z" fill="#25E921"/>
<path d="M237.554 65.6506L271.61 27.7647C273.056 26.1625 275.518 26.0258 277.12 27.4716L278.566 28.7807C280.168 30.2266 280.305 32.6885 278.859 34.2907L244.822 72.1961C243.377 73.7983 240.915 73.9351 239.312 72.4892L237.867 71.1801C236.245 69.7342 236.108 67.2724 237.554 65.6506Z" fill="white"/>
<path d="M239.156 72.4306L221.16 55.0606C219.617 53.5561 219.558 51.0942 221.063 49.5311L222.411 48.1243C223.915 46.5807 226.377 46.5221 227.94 48.0266L245.936 65.3966C247.479 66.9011 247.538 69.363 246.033 70.9261L244.685 72.3329C243.2 73.8765 240.719 73.9351 239.156 72.4306Z" fill="white"/>
<path d="M429.31 76.4127L486.071 13.2696C488.481 10.5993 492.584 10.3713 495.254 12.7811L497.664 14.9629C500.334 17.3727 500.562 21.4759 498.152 24.1462L441.424 87.3219C439.015 89.9923 434.911 90.2202 432.241 87.8104L429.831 85.6286C427.128 83.2188 426.901 79.1156 429.31 76.4127Z" fill="#25E921"/>
<path d="M431.98 87.7132L401.988 58.7631C399.415 56.2556 399.317 52.1524 401.825 49.5472L404.072 47.2025C406.579 44.6299 410.683 44.5322 413.288 47.0397L443.28 75.9898C445.852 78.4973 445.95 82.6005 443.443 85.2057L441.196 87.5503C438.721 90.123 434.585 90.2207 431.98 87.7132Z" fill="#25E921"/>
<rect x="537.5" width="25" height="100" rx="12.5" fill="#CD3A3A"/>
<rect x="500" y="62.5" width="25" height="100" rx="12.5" transform="rotate(-90 500 62.5)" fill="#CD3A3A"/>
<circle cx="650.478" cy="56.5217" r="41.3044" stroke="white" stroke-width="4.34783"/>
<rect x="646.13" y="58.6956" width="4.34783" height="30.4348" rx="2.17391" transform="rotate(-90 646.13 58.6956)" fill="white"/>
<rect x="648.304" y="30.4348" width="4.34783" height="30.4348" rx="2.17391" fill="white"/>
<rect x="648.304" y="23.9131" width="4.34783" height="4.34783" rx="2.17391" fill="white"/>
<rect x="678.739" y="58.6956" width="4.34783" height="4.34783" rx="2.17391" transform="rotate(-90 678.739 58.6956)" fill="white"/>
<rect x="648.304" y="84.7827" width="4.34783" height="4.34783" rx="2.17391" fill="white"/>
<rect x="617.87" y="58.6956" width="4.34783" height="4.34783" rx="2.17391" transform="rotate(-90 617.87 58.6956)" fill="white"/>
<circle cx="650.523" cy="8.74006" r="6.52174" transform="rotate(90.2938 650.523 8.74006)" stroke="white" stroke-width="4.34783"/>
<rect x="712.5" y="2.5" width="75" height="95" rx="7.5" stroke="white" stroke-width="5"/>
<circle cx="727" cy="82.8948" r="5" fill="white"/>
<circle cx="742" cy="82.8948" r="5" fill="white"/>
<circle cx="757" cy="82.8948" r="5" fill="white"/>
<circle cx="772" cy="82.8948" r="5" fill="white"/>
<path fill-rule="evenodd" clip-rule="evenodd" d="M727 11.0527C724.239 11.0527 722 13.2913 722 16.0527V46.0527C722 48.8142 724.239 51.0527 727 51.0527H773C775.761 51.0527 778 48.8142 778 46.0527V16.0527C778 13.2913 775.761 11.0527 773 11.0527H727ZM748.465 31.201C748.199 31.8495 748.066 32.7205 748.066 33.8143H751.066L751.113 33.0995C751.199 32.3338 751.539 31.6659 752.133 31.0955L753.082 30.1932C753.824 29.4745 754.344 28.8221 754.641 28.2362C754.938 27.6424 755.086 27.0135 755.086 26.3495C755.086 24.8885 754.629 23.7596 753.715 22.9627C752.801 22.158 751.516 21.7557 749.859 21.7557C748.219 21.7557 746.922 22.1776 745.969 23.0213C745.023 23.8651 744.543 25.033 744.527 26.5252H747.926C747.941 25.9002 748.121 25.412 748.465 25.0604C748.816 24.701 749.281 24.5213 749.859 24.5213C751.078 24.5213 751.688 25.1815 751.688 26.5018C751.688 26.9393 751.57 27.3573 751.336 27.7557C751.102 28.1463 750.629 28.658 749.918 29.2909C749.215 29.9159 748.731 30.5526 748.465 31.201ZM748.254 36.1229C747.902 36.4588 747.727 36.8885 747.727 37.412C747.727 37.9276 747.898 38.3534 748.242 38.6893C748.594 39.0252 749.055 39.1932 749.625 39.1932C750.195 39.1932 750.652 39.0252 750.996 38.6893C751.348 38.3534 751.523 37.9276 751.523 37.412C751.523 36.8885 751.344 36.4588 750.984 36.1229C750.633 35.7791 750.18 35.6073 749.625 35.6073C749.07 35.6073 748.613 35.7791 748.254 36.1229Z" fill="white"/>
<rect x="812.5" y="2.5" width="75" height="95" rx="7.5" stroke="white" stroke-width="5"/>
<circle cx="827" cy="82.8948" r="5" fill="white"/>
<circle cx="842" cy="82.8948" r="5" fill="white"/>
<circle cx="857" cy="82.8948" r="5" fill="white"/>
<circle cx="872" cy="82.8948" r="5" fill="white"/>
<rect x="824.5" y="13.5527" width="51" height="35" rx="2.5" fill="white" stroke="white" stroke-width="5"/>
<rect x="912.5" y="2.5" width="75" height="95" rx="7.5" stroke="white" stroke-width="5"/>
<circle cx="927" cy="83" r="5" fill="white"/>
<circle cx="942" cy="83" r="5" fill="white"/>
<circle cx="957" cy="83" r="5" fill="white"/>
<circle cx="972" cy="83" r="5" fill="white"/>
<path fill-rule="evenodd" clip-rule="evenodd" d="M927 11C924.239 11 922 13.2386 922 16V46C922 48.7614 924.239 51 927 51H973C975.761 51 978 48.7614 978 46V16C978 13.2386 975.761 11 973 11H927ZM949 21C947.895 21 947 21.8954 947 23V29H942C940.895 29 940 29.8954 940 31V32C940 33.1046 940.895 34 942 34H947V39C947 40.1046 947.895 41 949 41H950C951.105 41 952 40.1046 952 39V34H957C958.105 34 959 33.1046 959 32V31C959 29.8954 958.105 29 957 29H952V23C952 21.8954 951.105 21 950 21H949Z" fill="white"/>
<rect x="2.5" y="102.5" width="95" height="95" rx="7.5" stroke="white" stroke-width="5"/>
<rect x="14.5" y="118.5" width="71" height="15" rx="2.5" stroke="white" stroke-width="5"/>
<rect x="14.5" y="142.5" width="30" height="15" rx="2.5" stroke="white" stroke-width="5"/>
<rect x="14.5" y="166.5" width="54" height="15" rx="2.5" stroke="white" stroke-width="5"/>
<path d="M150 180.5L100 130.5L111.5 119L150 157.5L188.5 119L200 130.5L150 180.5Z" fill="#7A7A7A"/>
<path fill-rule="evenodd" clip-rule="evenodd" d="M300 100H200V200H300V100ZM251.25 131.25C248.662 131.25 246.563 133.349 246.563 135.938V145.312H237.188C234.599 145.312 232.5 147.411 232.5 150C232.5 152.589 234.599 154.688 237.188 154.688H246.563V164.062C246.563 166.651 248.662 168.75 251.25 168.75C253.839 168.75 255.938 166.651 255.938 164.062V154.688H265.312C267.901 154.688 270 152.589 270 150C270 147.411 267.901 145.312 265.312 145.312H255.938V135.938C255.938 133.349 253.839 131.25 251.25 131.25Z" fill="white"/>
<path fill-rule="evenodd" clip-rule="evenodd" d="M400 100H300V200H400V100ZM332.5 150C332.5 152.589 334.599 154.688 337.188 154.688H365.312C367.901 154.688 370 152.589 370 150C370 147.411 367.901 145.312 365.312 145.312H337.188C334.599 145.312 332.5 147.411 332.5 150Z" fill="white"/>
<path fill-rule="evenodd" clip-rule="evenodd" d="M500 100H400V200H500V100ZM452.594 166.594L466.536 152.652C468 151.187 468 148.813 466.536 147.348L452.594 133.406C451.403 132.215 449.472 132.215 448.281 133.406C447.09 134.597 447.09 136.528 448.281 137.719L457.563 147H436.75C435.093 147 433.75 148.343 433.75 150C433.75 151.657 435.093 153 436.75 153H457.562L448.281 162.281C447.09 163.472 447.09 165.403 448.281 166.594C449.472 167.785 451.403 167.785 452.594 166.594Z" fill="white"/>
<path fill-rule="evenodd" clip-rule="evenodd" d="M500 100H600V200H500V100ZM527.5 130C527.5 127.239 529.739 125 532.5 125H542.5C545.261 125 547.5 127.239 547.5 130V140C547.5 142.761 545.261 145 542.5 145H532.5C529.739 145 527.5 142.761 527.5 140V130ZM562.5 125C559.739 125 557.5 127.239 557.5 130V140C557.5 142.761 559.739 145 562.5 145H572.5C575.261 145 577.5 142.761 577.5 140V130C577.5 127.239 575.261 125 572.5 125H562.5ZM527.5 160C527.5 157.239 529.739 155 532.5 155H542.5C545.261 155 547.5 157.239 547.5 160V170C547.5 172.761 545.261 175 542.5 175H532.5C529.739 175 527.5 172.761 527.5 170V160ZM562.5 157.5H572.5C573.881 157.5 575 158.619 575 160V170C575 171.381 573.881 172.5 572.5 172.5H562.5C561.119 172.5 560 171.381 560 170V160C560 158.619 561.119 157.5 562.5 157.5ZM557.5 160C557.5 157.239 559.739 155 562.5 155H572.5C575.261 155 577.5 157.239 577.5 160V170C577.5 172.761 575.261 175 572.5 175H562.5C559.739 175 557.5 172.761 557.5 170V160Z" fill="white"/>
<path fill-rule="evenodd" clip-rule="evenodd" d="M700 100H600V200H700V100ZM643.905 168.4C643.55 168.19 643.216 167.931 642.914 167.624L628.417 152.914C626.53 150.998 626.552 147.915 628.468 146.028C630.383 144.14 633.466 144.163 635.354 146.078L645.872 156.751L664.258 131.44C665.839 129.264 668.884 128.781 671.06 130.362C673.235 131.942 673.718 134.987 672.138 137.163L650.386 167.107C648.881 169.178 646.05 169.715 643.905 168.4Z" fill="white"/>
<path d="M752.172 112.109C745.518 112.107 738.978 113.838 733.196 117.132C727.415 120.426 722.591 125.169 719.201 130.895C719.186 130.924 719.164 130.957 719.148 130.986H726.6C729.68 127.142 733.605 124.061 738.071 121.981C742.536 119.902 747.421 118.881 752.346 118.998C769.316 119.348 783.186 132.998 783.58 149.758C784.014 167.531 769.555 182.074 751.654 182.074C738.295 182.074 726.85 173.957 722.088 162.445C721.854 161.879 721.639 161.309 721.434 160.721C721.434 160.719 721.433 160.717 721.433 160.715C721.432 160.713 721.43 160.712 721.429 160.711C721.427 160.709 721.426 160.709 721.424 160.708C721.422 160.708 721.42 160.708 721.418 160.709H716.322C716.32 160.709 716.317 160.708 716.314 160.707C716.312 160.706 716.31 160.705 716.308 160.703C716.306 160.701 716.304 160.698 716.304 160.696C716.303 160.693 716.302 160.69 716.303 160.688V154.787C716.302 154.784 716.303 154.782 716.304 154.779C716.304 154.776 716.306 154.774 716.308 154.772C716.31 154.77 716.312 154.768 716.314 154.767C716.317 154.766 716.32 154.766 716.322 154.766H729.604C729.606 154.765 729.609 154.765 729.611 154.763C729.613 154.762 729.615 154.761 729.617 154.759C729.618 154.757 729.62 154.754 729.62 154.752C729.621 154.749 729.621 154.747 729.621 154.744V149.26C729.621 149.254 729.618 149.249 729.614 149.246C729.61 149.242 729.605 149.24 729.6 149.24H713.879C713.877 149.259 713.877 149.278 713.879 149.297C713.879 149.668 713.867 150.037 713.867 150.416C713.867 171.578 731.02 188.727 752.176 188.727C773.332 188.727 790.49 171.576 790.49 150.418C790.49 129.26 773.332 112.109 752.172 112.109ZM730.471 134.809H717.178C715.434 138.702 714.362 142.862 714.008 147.113H721.537C721.542 147.112 721.546 147.109 721.549 147.105C721.553 147.102 721.554 147.097 721.555 147.092C721.533 144.713 721.494 142.451 721.555 139.918C721.555 139.915 721.555 139.913 721.556 139.911C721.557 139.908 721.559 139.906 721.561 139.905C721.562 139.903 721.565 139.902 721.567 139.901C721.569 139.9 721.572 139.9 721.574 139.9H730.471C730.473 139.9 730.476 139.899 730.478 139.898C730.48 139.897 730.482 139.895 730.484 139.893C730.486 139.891 730.487 139.889 730.488 139.887C730.488 139.884 730.489 139.881 730.488 139.879V134.838C730.488 134.816 730.471 134.809 730.471 134.809ZM721.346 138.637H718.807V136.098H721.346V138.637Z" fill="#36B889"/>
<path d="M861.635 144.469H802.125V147.015H861.635V144.469Z" fill="#36B889"/>
<path d="M864.941 130.139H841.504C839.886 130.139 838.574 131.45 838.574 133.068V170.178C838.574 171.796 839.886 173.107 841.504 173.107H864.941C866.559 173.107 867.871 171.796 867.871 170.178V133.068C867.871 131.45 866.559 130.139 864.941 130.139Z" stroke="#36B889" stroke-width="2.92968" stroke-miterlimit="10"/>
<path d="M845.129 167C846.305 167 847.258 166.104 847.258 165C847.258 163.895 846.305 163 845.129 163C843.953 163 843 163.895 843 165C843 166.104 843.953 167 845.129 167Z" fill="#36B889"/>
<path d="M853.129 167C854.305 167 855.258 166.104 855.258 165C855.258 163.895 854.305 163 853.129 163C851.953 163 851 163.895 851 165C851 166.104 851.953 167 853.129 167Z" fill="#36B889"/>
<path d="M861.129 167C862.305 167 863.258 166.104 863.258 165C863.258 163.895 862.305 163 861.129 163C859.953 163 859 163.895 859 165C859 166.104 859.953 167 861.129 167Z" fill="#36B889"/>
<path d="M837.439 160.611H807.724V163.158H837.439V160.611Z" fill="#36B889"/>
<path d="M894.609 150.424H846.354V152.97H894.609V150.424Z" fill="#36B889"/>
<path d="M846.384 150.436L835.624 161.196L837.43 163.002L848.19 152.242L846.384 150.436Z" fill="#36B889"/>
<path d="M899.672 148.511H893.961C893.78 148.511 893.633 148.658 893.633 148.84V154.551C893.633 154.732 893.78 154.879 893.961 154.879H899.672C899.853 154.879 900 154.732 900 154.551V148.84C900 148.658 899.853 148.511 899.672 148.511Z" fill="#36B889"/>
<path d="M800 162.097L809.059 167.326V156.867L800 162.097Z" fill="#36B889"/>
<path d="M826.283 162.098L831.881 165.328V158.865L826.283 162.098Z" fill="#36B889"/>
<path d="M863.119 151.697L868.717 154.928V148.465L863.119 151.697Z" fill="#36B889"/>
<path d="M837.439 129.187H807.724V131.734H837.439V129.187Z" fill="#36B889"/>
<path d="M878.19 139.375H846.354V141.922H878.19V139.375Z" fill="#36B889"/>
<path d="M837.432 129.343L835.626 131.149L846.386 141.909L848.192 140.103L837.432 129.343Z" fill="#36B889"/>
<path d="M809.096 127.064H803.385C803.204 127.064 803.057 127.211 803.057 127.392V133.103C803.057 133.284 803.204 133.431 803.385 133.431H809.096C809.277 133.431 809.424 133.284 809.424 133.103V127.392C809.424 127.211 809.277 127.064 809.096 127.064Z" fill="#36B889"/>
<path d="M844.539 138.525L843.654 132.125L838.553 136.091L844.539 138.525Z" fill="#36B889"/>
<path d="M886.164 140.224L877.103 134.994V145.455L886.164 140.224Z" fill="#36B889"/>
</svg>
