<svg xmlns="http://www.w3.org/2000/svg" viewBox="0 0 512 512"><defs><style>.a{fill:lime;}.b{fill:#fff;}.c{fill:#39b54a;stroke:lime;stroke-miterlimit:10;stroke-width:15px;}</style></defs><title>Logo Rexam</title><rect width="512" height="512" rx="100"/><path class="a" d="M266.25,72.11A183.85,183.85,0,0,0,108,162.28l-.26.44H143.5a153.71,153.71,0,0,1,123.58-57.54c81.46,1.68,148,67.2,149.93,147.65C419.09,338.16,349.68,408,263.76,408c-64.12,0-119.1-39-141.92-94.22-1.12-2.72-2.15-5.46-3.14-8.28a.06.06,0,0,0-.07-.06H94.17c-.06,0-.09,0-.09-.1V277c0-.06,0-.11.09-.11H158a.09.09,0,0,0,.08-.1V250.44a.11.11,0,0,0-.1-.1H82.44a1.22,1.22,0,0,0,0,.27c0,1.78-.06,3.56-.06,5.38,0,101.57,82.34,183.89,183.89,183.89S450.17,357.55,450.17,256,367.82,72.11,266.25,72.11Zm-104.17,109H98.28a181.1,181.1,0,0,0-15.22,59.08H119.2a.11.11,0,0,0,.08-.1c-.1-11.42-.29-22.28,0-34.44,0,0,0,0,0,0a.08.08,0,0,1,.1-.08h42.7a.1.1,0,0,0,.09-.1V181.17C162.17,181.11,162.08,181.07,162.08,181.07Zm-43.8,18.38H106.06V187.21h12.22Z"/><rect class="b" x="26.2" y="227.97" width="285.65" height="12.22"/><rect class="c" x="201.16" y="159.18" width="140.63" height="206.25" rx="15"/><ellipse class="a" cx="271.32" cy="306.72" rx="11.14" ry="9.02"/><path class="a" d="M304.75,234c0,10.61-3.18,11.67-17,26.53S279.28,286,279.28,286H264.42c-1.06-8.49,0-12.74,0-12.74s2.12-8.49,12.74-19.1,10.61-17,10.61-17,1.06-6.37-1.06-8.49c-13.28-13.28-34-2.12-34-2.12L248.5,217c3.18-2.12,25.47-8.49,38.21-4.24S304.75,223.4,304.75,234Z"/><rect class="b" x="53.08" y="305.44" width="142.63" height="12.22"/><rect class="b" x="238.5" y="256.55" width="231.63" height="12.22"/><rect class="b" x="180.64" y="280.64" width="73.04" height="12.26" transform="translate(-139.17 237.55) rotate(-45)"/><rect class="b" x="465.44" y="247.37" width="30.56" height="30.56" rx="1.58"/><polygon class="b" points="16 312.58 59.48 337.68 59.48 287.47 16 312.58"/><polygon class="b" points="142.16 312.58 169.02 328.09 169.02 297.07 142.16 312.58"/><polygon class="b" points="318.98 262.66 345.85 278.17 345.85 247.15 318.98 262.66"/><rect class="b" x="53.08" y="154.62" width="142.63" height="12.22"/><rect class="b" x="238.5" y="203.51" width="152.81" height="12.22"/><rect class="b" x="211.03" y="149" width="12.26" height="73.04" transform="translate(-67.58 207.89) rotate(-45)"/><rect class="b" x="30.67" y="144.42" width="30.56" height="30.56" rx="1.58"/><polygon class="b" points="229.79 199.44 225.54 168.71 201.05 187.75 229.79 199.44"/><polygon class="b" points="429.59 207.59 386.1 182.48 386.1 232.7 429.59 207.59"/></svg>