<svg width="512" height="512" viewBox="0 0 512 512" fill="none" xmlns="http://www.w3.org/2000/svg">
<path d="M266.93 61.4392C232.861 61.4251 199.377 70.2872 169.775 87.1526C140.174 104.018 115.478 128.304 98.1196 157.619C98.0396 157.769 97.9296 157.939 97.8496 158.089H136C151.77 138.407 171.868 122.63 194.732 111.984C217.595 101.338 242.606 96.1107 267.82 96.7092C354.71 98.4992 425.72 168.389 427.74 254.199C429.96 345.199 355.93 419.659 264.28 419.659C195.88 419.659 137.28 378.099 112.9 319.159C111.7 316.259 110.6 313.339 109.55 310.329C109.55 310.319 109.548 310.309 109.544 310.3C109.54 310.291 109.534 310.284 109.526 310.278C109.518 310.272 109.508 310.268 109.499 310.266C109.489 310.265 109.479 310.266 109.47 310.269H83.3796C83.3656 310.269 83.3517 310.266 83.3388 310.261C83.326 310.255 83.3145 310.247 83.3051 310.236C83.2956 310.226 83.2885 310.214 83.2841 310.201C83.2797 310.187 83.2782 310.173 83.2796 310.159V279.949C83.2782 279.935 83.2797 279.921 83.2841 279.908C83.2885 279.895 83.2956 279.882 83.3051 279.872C83.3145 279.862 83.326 279.853 83.3388 279.848C83.3517 279.842 83.3656 279.839 83.3796 279.839H151.38C151.393 279.838 151.406 279.834 151.417 279.828C151.429 279.822 151.439 279.813 151.448 279.803C151.456 279.793 151.462 279.781 151.466 279.768C151.47 279.756 151.471 279.742 151.47 279.729V251.649C151.467 251.622 151.454 251.596 151.434 251.578C151.414 251.559 151.387 251.549 151.36 251.549H70.8696C70.8596 251.646 70.8596 251.743 70.8696 251.839C70.8696 253.739 70.8096 255.629 70.8096 257.569C70.8096 365.919 158.63 453.719 266.95 453.719C375.27 453.719 463.12 365.909 463.12 257.579C463.12 149.249 375.27 61.4392 266.93 61.4392ZM155.82 177.659H87.7596C78.8299 197.592 73.3422 218.893 71.5296 240.659H110.08C110.104 240.653 110.126 240.639 110.143 240.619C110.159 240.599 110.168 240.575 110.17 240.549C110.06 228.369 109.86 216.789 110.17 203.819C110.169 203.806 110.172 203.794 110.177 203.782C110.182 203.771 110.19 203.76 110.199 203.752C110.209 203.743 110.22 203.737 110.232 203.733C110.244 203.729 110.257 203.728 110.27 203.729H155.82C155.833 203.728 155.846 203.724 155.857 203.718C155.869 203.712 155.879 203.703 155.888 203.693C155.896 203.683 155.902 203.671 155.906 203.658C155.91 203.646 155.911 203.632 155.91 203.619V177.809C155.91 177.699 155.82 177.659 155.82 177.659ZM109.1 197.259H96.0996V184.259H109.1V197.259Z" fill="#36B889"/>
<path d="M315.57 227.68H10.8802V240.72H315.57V227.68Z" fill="#36B889"/>
<path d="M332.5 154.311H212.5C204.215 154.311 197.5 161.027 197.5 169.311V359.311C197.5 367.595 204.215 374.311 212.5 374.311H332.5C340.784 374.311 347.5 367.595 347.5 359.311V169.311C347.5 161.027 340.784 154.311 332.5 154.311Z" stroke="#36B889" stroke-width="15" stroke-miterlimit="10"/>
<path d="M231.059 343.04C237.079 343.04 241.959 338.455 241.959 332.8C241.959 327.145 237.079 322.56 231.059 322.56C225.04 322.56 220.16 327.145 220.16 332.8C220.16 338.455 225.04 343.04 231.059 343.04Z" fill="#36B889"/>
<path d="M272.02 343.04C278.039 343.04 282.92 338.455 282.92 332.8C282.92 327.145 278.039 322.56 272.02 322.56C266 322.56 261.12 327.145 261.12 332.8C261.12 338.455 266 343.04 272.02 343.04Z" fill="#36B889"/>
<path d="M312.981 343.04C319.001 343.04 323.881 338.455 323.881 332.8C323.881 327.145 319.001 322.56 312.981 322.56C306.961 322.56 302.081 327.145 302.081 332.8C302.081 338.455 306.961 343.04 312.981 343.04Z" fill="#36B889"/>
<path d="M191.689 310.33H39.5494V323.37H191.689V310.33Z" fill="#36B889"/>
<path d="M484.4 258.17H237.33V271.21H484.4V258.17Z" fill="#36B889"/>
<path d="M237.484 258.233L182.393 313.324L191.642 322.573L246.733 267.482L237.484 258.233Z" fill="#36B889"/>
<path d="M510.321 248.381H481.081C480.153 248.381 479.401 249.133 479.401 250.061V279.301C479.401 280.228 480.153 280.981 481.081 280.981H510.321C511.248 280.981 512.001 280.228 512.001 279.301V250.061C512.001 249.133 511.248 248.381 510.321 248.381Z" fill="#36B889"/>
<path d="M0 317.94L46.38 344.71V291.16L0 317.94Z" fill="#36B889"/>
<path d="M134.57 317.94L163.23 334.48V301.39L134.57 317.94Z" fill="#36B889"/>
<path d="M323.169 264.69L351.829 281.23V248.14L323.169 264.69Z" fill="#36B889"/>
<path d="M191.689 149.44H39.5494V162.48H191.689V149.44Z" fill="#36B889"/>
<path d="M400.33 201.6H237.33V214.64H400.33V201.6Z" fill="#36B889"/>
<path d="M191.653 150.237L182.405 159.486L237.495 214.576L246.744 205.327L191.653 150.237Z" fill="#36B889"/>
<path d="M46.5706 138.57H17.3306C16.4028 138.57 15.6506 139.322 15.6506 140.25V169.49C15.6506 170.418 16.4028 171.17 17.3306 171.17H46.5706C47.4985 171.17 48.2506 170.418 48.2506 169.49V140.25C48.2506 139.322 47.4985 138.57 46.5706 138.57Z" fill="#36B889"/>
<path d="M228.04 197.25L223.51 164.48L197.39 184.79L228.04 197.25Z" fill="#36B889"/>
<path d="M441.158 205.95L394.768 179.17V232.73L441.158 205.95Z" fill="#36B889"/>
</svg>
