<svg width="512" height="512" viewBox="0 0 512 512" fill="none" xmlns="http://www.w3.org/2000/svg">
<path d="M266.929 61.4397C232.861 61.4255 199.376 70.2877 169.775 87.1531C140.174 104.018 115.478 128.305 98.1194 157.62C98.0394 157.77 97.9294 157.94 97.8494 158.09H135.999C151.769 138.408 171.868 122.63 194.731 111.984C217.595 101.338 242.606 96.1112 267.819 96.7097C354.709 98.4997 425.719 168.39 427.739 254.2C429.959 345.2 355.929 419.66 264.279 419.66C195.879 419.66 137.279 378.1 112.899 319.16C111.699 316.26 110.599 313.34 109.549 310.33C109.55 310.32 109.548 310.31 109.544 310.301C109.54 310.292 109.533 310.284 109.526 310.278C109.518 310.272 109.508 310.268 109.499 310.267C109.489 310.265 109.479 310.266 109.469 310.27H83.3794C83.3654 310.27 83.3516 310.267 83.3387 310.261C83.3259 310.256 83.3144 310.247 83.305 310.237C83.2955 310.227 83.2884 310.214 83.284 310.201C83.2796 310.188 83.278 310.174 83.2794 310.16V279.95C83.278 279.936 83.2796 279.922 83.284 279.908C83.2884 279.895 83.2955 279.883 83.305 279.872C83.3144 279.862 83.3259 279.854 83.3387 279.848C83.3516 279.843 83.3654 279.84 83.3794 279.84H151.379C151.393 279.838 151.405 279.835 151.417 279.828C151.429 279.822 151.439 279.814 151.447 279.803C151.456 279.793 151.462 279.781 151.466 279.769C151.47 279.756 151.471 279.743 151.469 279.73V251.65C151.467 251.622 151.454 251.597 151.434 251.578C151.414 251.56 151.387 251.55 151.359 251.55H70.8695C70.8595 251.646 70.8595 251.743 70.8695 251.84C70.8695 253.74 70.8094 255.63 70.8094 257.57C70.8094 365.92 158.629 453.72 266.949 453.72C375.269 453.72 463.119 365.91 463.119 257.58C463.119 149.25 375.269 61.4397 266.929 61.4397ZM155.819 177.66H87.7594C78.8298 197.592 73.3421 218.894 71.5294 240.66H110.079C110.104 240.653 110.126 240.639 110.142 240.619C110.159 240.6 110.168 240.575 110.169 240.55C110.059 228.37 109.859 216.79 110.169 203.82C110.169 203.807 110.172 203.794 110.177 203.783C110.182 203.771 110.19 203.761 110.199 203.752C110.209 203.744 110.22 203.737 110.232 203.733C110.244 203.73 110.257 203.728 110.269 203.73H155.819C155.833 203.728 155.845 203.725 155.857 203.718C155.869 203.712 155.879 203.704 155.887 203.693C155.896 203.683 155.902 203.671 155.906 203.659C155.91 203.646 155.911 203.633 155.909 203.62V177.81C155.909 177.7 155.819 177.66 155.819 177.66ZM109.099 197.26H96.0994V184.26H109.099V197.26Z" fill="white"/>
<path d="M315.57 227.68H10.8803V240.72H315.57V227.68Z" fill="white"/>
<path d="M332.5 154.31H212.5C204.216 154.31 197.5 161.026 197.5 169.31V359.31C197.5 367.594 204.216 374.31 212.5 374.31H332.5C340.784 374.31 347.5 367.594 347.5 359.31V169.31C347.5 161.026 340.784 154.31 332.5 154.31Z" stroke="white" stroke-width="15" stroke-miterlimit="10"/>
<path d="M231.06 343.04C237.08 343.04 241.96 338.455 241.96 332.8C241.96 327.144 237.08 322.56 231.06 322.56C225.04 322.56 220.16 327.144 220.16 332.8C220.16 338.455 225.04 343.04 231.06 343.04Z" fill="white"/>
<path d="M272.02 343.04C278.04 343.04 282.92 338.455 282.92 332.8C282.92 327.144 278.04 322.56 272.02 322.56C266 322.56 261.12 327.144 261.12 332.8C261.12 338.455 266 343.04 272.02 343.04Z" fill="white"/>
<path d="M312.981 343.04C319 343.04 323.881 338.455 323.881 332.8C323.881 327.144 319 322.56 312.981 322.56C306.961 322.56 302.081 327.144 302.081 332.8C302.081 338.455 306.961 343.04 312.981 343.04Z" fill="white"/>
<path d="M191.69 310.33H39.55V323.37H191.69V310.33Z" fill="white"/>
<path d="M484.401 258.17H237.331V271.21H484.401V258.17Z" fill="white"/>
<path d="M237.485 258.234L182.394 313.324L191.643 322.573L246.734 267.483L237.485 258.234Z" fill="white"/>
<path d="M510.32 248.38H481.08C480.153 248.38 479.4 249.132 479.4 250.06V279.3C479.4 280.228 480.153 280.98 481.08 280.98H510.32C511.248 280.98 512 280.228 512 279.3V250.06C512 249.132 511.248 248.38 510.32 248.38Z" fill="white"/>
<path d="M0 317.94L46.38 344.71V291.16L0 317.94Z" fill="white"/>
<path d="M134.57 317.94L163.23 334.48V301.39L134.57 317.94Z" fill="white"/>
<path d="M323.17 264.69L351.83 281.23V248.14L323.17 264.69Z" fill="white"/>
<path d="M191.69 149.44H39.55V162.48H191.69V149.44Z" fill="white"/>
<path d="M400.331 201.6H237.331V214.64H400.331V201.6Z" fill="white"/>
<path d="M191.654 150.236L182.405 159.485L237.496 214.576L246.744 205.327L191.654 150.236Z" fill="white"/>
<path d="M46.5703 138.57H17.3303C16.4025 138.57 15.6503 139.322 15.6503 140.25V169.49C15.6503 170.418 16.4025 171.17 17.3303 171.17H46.5703C47.4982 171.17 48.2503 170.418 48.2503 169.49V140.25C48.2503 139.322 47.4982 138.57 46.5703 138.57Z" fill="white"/>
<path d="M228.04 197.25L223.51 164.48L197.39 184.79L228.04 197.25Z" fill="white"/>
<path d="M441.159 205.95L394.769 179.17V232.73L441.159 205.95Z" fill="white"/>
</svg>
