<svg xmlns="http://www.w3.org/2000/svg" viewBox="0 0 512 392.29"><defs><style>.a{fill:lime;}.b{fill:#fff;}.c{fill:#39b54a;stroke:lime;stroke-miterlimit:10;stroke-width:15px;}</style></defs><title>Logo Rexam Transparent</title><path class="a" d="M266.93,59.63A196.09,196.09,0,0,0,98.12,155.81c-.08.15-.19.32-.27.47H136A163.93,163.93,0,0,1,267.82,94.9c86.89,1.79,157.9,71.68,159.92,157.49,2.22,91-71.81,165.46-163.46,165.46-68.4,0-127-41.56-151.38-100.5-1.2-2.9-2.3-5.82-3.35-8.83a.06.06,0,0,0-.08-.06H83.38a.1.1,0,0,1-.1-.11V278.14a.1.1,0,0,1,.1-.11h68a.1.1,0,0,0,.09-.11V249.84a.11.11,0,0,0-.11-.1H70.87a1.41,1.41,0,0,0,0,.29c0,1.9-.06,3.79-.06,5.73,0,108.35,87.82,196.15,196.14,196.15S463.12,364.1,463.12,255.77,375.27,59.63,266.93,59.63ZM155.82,175.85H87.76a193.34,193.34,0,0,0-16.23,63h38.55a.12.12,0,0,0,.09-.11c-.11-12.18-.31-23.76,0-36.73,0,0,0,0,0,0a.09.09,0,0,1,.1-.09h45.55a.1.1,0,0,0,.09-.11V176C155.91,175.89,155.82,175.85,155.82,175.85Zm-46.72,19.6h-13v-13h13Z" transform="translate(0 -59.63)"/><rect class="b" x="10.88" y="166.24" width="304.69" height="13.04"/><rect class="c" x="197.5" y="92.87" width="150" height="220" rx="15"/><ellipse class="a" cx="272.34" cy="250.24" rx="11.89" ry="9.62"/><path class="a" d="M308,232.32c0,11.33-3.4,12.46-18.11,28.31s-9.06,27.17-9.06,27.17H265c-1.13-9.06,0-13.59,0-13.59s2.27-9.06,13.59-20.38,11.32-18.11,11.32-18.11,1.13-6.79-1.14-9.06c-14.16-14.16-36.22-2.26-36.22-2.26L248,214.21c3.4-2.26,27.17-9.06,40.75-4.53S308,221,308,232.32Z" transform="translate(0 -59.63)"/><rect class="b" x="39.55" y="248.89" width="152.14" height="13.04"/><rect class="b" x="237.33" y="196.73" width="247.07" height="13.04"/><rect class="b" x="175.61" y="282.05" width="77.91" height="13.08" transform="translate(-141.22 176.62) rotate(-45)"/><rect class="b" x="479.4" y="186.94" width="32.6" height="32.6" rx="1.68"/><polygon class="b" points="0 256.5 46.38 283.27 46.38 229.72 0 256.5"/><polygon class="b" points="134.57 256.5 163.23 273.04 163.23 239.95 134.57 256.5"/><polygon class="b" points="323.17 203.25 351.83 219.79 351.83 186.7 323.17 203.25"/><rect class="b" x="39.55" y="88" width="152.14" height="13.04"/><rect class="b" x="237.33" y="140.16" width="163" height="13.04"/><rect class="b" x="208.03" y="141.64" width="13.08" height="77.91" transform="translate(-64.85 144.99) rotate(-45)"/><rect class="b" x="15.65" y="77.13" width="32.6" height="32.6" rx="1.68"/><polygon class="b" points="228.04 135.81 223.51 103.04 197.39 123.35 228.04 135.81"/><polygon class="b" points="441.16 144.51 394.77 117.73 394.77 171.29 441.16 144.51"/></svg>