<svg width="429" height="281" viewBox="0 0 429 281" fill="none" xmlns="http://www.w3.org/2000/svg">
<rect x="148" y="194.886" width="80" height="100" rx="10" transform="rotate(-35 148 194.886)" stroke="white" stroke-width="5"/>
<circle cx="210.679" cy="254.763" r="5" transform="rotate(-35 210.679 254.763)" fill="white"/>
<circle cx="222.967" cy="246.16" r="5" transform="rotate(-35 222.967 246.16)" fill="white"/>
<circle cx="235.254" cy="237.556" r="5" transform="rotate(-35 235.254 237.556)" fill="white"/>
<circle cx="247.541" cy="228.952" r="5" transform="rotate(-35 247.541 228.952)" fill="white"/>
<path fill-rule="evenodd" clip-rule="evenodd" d="M167.661 193.327C165.399 194.911 164.849 198.029 166.433 200.291L183.641 224.865C185.224 227.127 188.342 227.677 190.604 226.093L228.285 199.709C230.547 198.125 231.097 195.007 229.513 192.745L212.306 168.17C210.722 165.908 207.604 165.359 205.342 166.942L167.661 193.327ZM191.418 188.9C190.513 189.533 190.294 190.78 190.927 191.685L194.369 196.6L190.273 199.468C189.368 200.102 189.148 201.349 189.782 202.253L190.355 203.073C190.989 203.977 192.236 204.197 193.141 203.564L197.236 200.696L200.104 204.792C200.738 205.696 201.985 205.916 202.89 205.283L203.709 204.709C204.614 204.076 204.834 202.829 204.2 201.924L201.332 197.828L205.428 194.96C206.333 194.327 206.553 193.079 205.919 192.175L205.346 191.356C204.712 190.451 203.465 190.231 202.56 190.864L198.464 193.732L195.023 188.817C194.389 187.913 193.142 187.693 192.237 188.326L191.418 188.9Z" fill="white"/>
<rect x="206" y="76.8438" width="41.5704" height="51.963" rx="5.1963" transform="rotate(-35 206 76.8438)" stroke="white" stroke-width="2.59815"/>
<circle cx="238.57" cy="107.958" r="2.59815" transform="rotate(-35 238.57 107.958)" fill="white"/>
<circle cx="244.955" cy="103.487" r="2.59815" transform="rotate(-35 244.955 103.487)" fill="white"/>
<circle cx="251.34" cy="99.0162" r="2.59815" transform="rotate(-35 251.34 99.0162)" fill="white"/>
<circle cx="257.725" cy="94.5455" r="2.59815" transform="rotate(-35 257.725 94.5455)" fill="white"/>
<path fill-rule="evenodd" clip-rule="evenodd" d="M216.217 76.0336C215.041 76.8566 214.756 78.4767 215.579 79.6521L224.52 92.4218C225.343 93.5972 226.963 93.8828 228.139 93.0598L247.719 79.3496C248.894 78.5266 249.18 76.9065 248.357 75.7311L239.415 62.9614C238.592 61.786 236.972 61.5003 235.797 62.3234L216.217 76.0336ZM228.562 73.733C228.092 74.0622 227.977 74.7102 228.307 75.1804L233.075 81.9909C233.404 82.461 234.053 82.5753 234.523 82.2461L234.948 81.9481C235.419 81.6188 235.533 80.9708 235.204 80.5006L230.435 73.6902C230.106 73.22 229.458 73.1057 228.987 73.4349L228.562 73.733ZM229.457 81.3528C228.986 81.682 228.338 81.5678 228.009 81.0976L227.711 80.672C227.382 80.2018 227.496 79.5538 227.966 79.2246L230.095 77.7343L231.585 79.8626L229.457 81.3528ZM235.799 75.0091C235.47 74.5389 234.822 74.4247 234.351 74.7539L232.223 76.2441L233.713 78.3724L235.842 76.8822C236.312 76.553 236.426 75.9049 236.097 75.4348L235.799 75.0091Z" fill="white"/>
<rect x="111" y="131.77" width="25.5059" height="31.8824" rx="3.18824" transform="rotate(-35 111 131.77)" stroke="white" stroke-width="1.59412"/>
<circle cx="130.983" cy="150.861" r="1.59412" transform="rotate(-35 130.983 150.861)" fill="white"/>
<circle cx="134.901" cy="148.118" r="1.59412" transform="rotate(-35 134.901 148.118)" fill="white"/>
<circle cx="138.819" cy="145.375" r="1.59412" transform="rotate(-35 138.819 145.375)" fill="white"/>
<circle cx="142.736" cy="142.632" r="1.59412" transform="rotate(-35 142.736 142.632)" fill="white"/>
<path fill-rule="evenodd" clip-rule="evenodd" d="M117.269 131.273C116.548 131.778 116.372 132.772 116.877 133.493L122.363 141.328C122.868 142.05 123.862 142.225 124.584 141.72L136.597 133.308C137.318 132.803 137.494 131.809 136.989 131.088L131.502 123.253C130.997 122.532 130.003 122.356 129.282 122.861L117.269 131.273ZM124.843 129.862C124.555 130.064 124.485 130.461 124.687 130.75L125.784 132.317L124.478 133.231C124.189 133.433 124.119 133.831 124.321 134.119L124.504 134.38C124.706 134.669 125.104 134.739 125.392 134.537L126.698 133.623L127.612 134.928C127.814 135.217 128.212 135.287 128.501 135.085L128.762 134.902C129.05 134.7 129.12 134.303 128.918 134.014L125.992 129.835C125.79 129.547 125.393 129.477 125.104 129.679L124.843 129.862ZM126.698 133.623L126.698 133.623L125.784 132.317L125.784 132.317L126.698 133.623ZM129.284 130.645C129.082 130.356 128.684 130.286 128.396 130.488L127.09 131.402L128.004 132.708L129.31 131.794C129.599 131.592 129.669 131.194 129.467 130.906L129.284 130.645Z" fill="white"/>
<rect x="4" y="49.8861" width="80" height="100" rx="10" transform="rotate(-35 4 49.8861)" stroke="white" stroke-width="5"/>
<circle cx="66.6795" cy="109.763" r="5" transform="rotate(-35 66.6795 109.763)" fill="white"/>
<circle cx="78.9671" cy="101.16" r="5" transform="rotate(-35 78.9671 101.16)" fill="white"/>
<circle cx="91.2542" cy="92.5559" r="5" transform="rotate(-35 91.2542 92.5559)" fill="white"/>
<circle cx="103.541" cy="83.9522" r="5" transform="rotate(-35 103.541 83.9522)" fill="white"/>
<path fill-rule="evenodd" clip-rule="evenodd" d="M23.6612 48.3268C21.3992 49.9107 20.8494 53.0284 22.4333 55.2905L39.6406 79.865C41.2245 82.1271 44.3422 82.6768 46.6042 81.0929L84.2852 54.7084C86.5473 53.1245 87.097 50.0068 85.5131 47.7447L68.3058 23.1702C66.7219 20.9082 63.6042 20.3584 61.3422 21.9423L23.6612 48.3268ZM47.4183 43.8997C46.5135 44.5332 46.2936 45.7803 46.9271 46.6851L50.3686 51.6L46.2728 54.4679C45.368 55.1015 45.1481 56.3486 45.7817 57.2534L46.3553 58.0725C46.9888 58.9773 48.2359 59.1972 49.1407 58.5637L53.2365 55.6958L56.1044 59.7915C56.7379 60.6964 57.985 60.9163 58.8898 60.2827L59.709 59.7091C60.6138 59.0756 60.8337 57.8285 60.2001 56.9237L57.3322 52.8279L61.428 49.96C62.3328 49.3265 62.5527 48.0794 61.9192 47.1746L61.3456 46.3554C60.712 45.4506 59.4649 45.2307 58.5601 45.8643L54.4644 48.7321L51.0229 43.8172C50.3894 42.9124 49.1423 42.6925 48.2375 43.3261L47.4183 43.8997Z" fill="white"/>
<rect x="302" y="124.886" width="80" height="100" rx="10" transform="rotate(-35 302 124.886)" stroke="white" stroke-width="5"/>
<circle cx="364.679" cy="184.763" r="5" transform="rotate(-35 364.679 184.763)" fill="white"/>
<circle cx="376.967" cy="176.16" r="5" transform="rotate(-35 376.967 176.16)" fill="white"/>
<circle cx="389.254" cy="167.556" r="5" transform="rotate(-35 389.254 167.556)" fill="white"/>
<circle cx="401.541" cy="158.952" r="5" transform="rotate(-35 401.541 158.952)" fill="white"/>
<path fill-rule="evenodd" clip-rule="evenodd" d="M321.661 123.327C319.399 124.911 318.849 128.028 320.433 130.29L337.641 154.865C339.224 157.127 342.342 157.677 344.604 156.093L382.285 129.708C384.547 128.124 385.097 125.007 383.513 122.745L366.306 98.1702C364.722 95.9082 361.604 95.3584 359.342 96.9423L321.661 123.327ZM345.418 118.9C344.513 119.533 344.294 120.78 344.927 121.685L348.369 126.6L344.273 129.468C343.368 130.101 343.148 131.349 343.782 132.253L344.355 133.073C344.989 133.977 346.236 134.197 347.141 133.564L351.236 130.696L354.104 134.792C354.738 135.696 355.985 135.916 356.89 135.283L357.709 134.709C358.614 134.076 358.834 132.828 358.2 131.924L355.332 127.828L359.428 124.96C360.333 124.326 360.553 123.079 359.919 122.175L359.346 121.355C358.712 120.451 357.465 120.231 356.56 120.864L352.464 123.732L349.023 118.817C348.389 117.912 347.142 117.693 346.237 118.326L345.418 118.9Z" fill="white"/>
</svg>
