<svg width="428" height="281" viewBox="0 0 428 281" fill="none" xmlns="http://www.w3.org/2000/svg">
<rect x="4" y="49.8862" width="80" height="100" rx="10" transform="rotate(-35 4 49.8862)" stroke="white" stroke-width="5"/>
<circle cx="66.6795" cy="109.763" r="5" transform="rotate(-35 66.6795 109.763)" fill="white"/>
<circle cx="78.9668" cy="101.16" r="5" transform="rotate(-35 78.9668 101.16)" fill="white"/>
<circle cx="91.2542" cy="92.556" r="5" transform="rotate(-35 91.2542 92.556)" fill="white"/>
<circle cx="103.542" cy="83.9525" r="5" transform="rotate(-35 103.542 83.9525)" fill="white"/>
<path fill-rule="evenodd" clip-rule="evenodd" d="M23.6614 48.3269C21.3994 49.9108 20.8497 53.0286 22.4336 55.2906L39.6408 79.8651C41.2247 82.1272 44.3425 82.6769 46.6045 81.093L84.2855 54.7085C86.5475 53.1246 87.0973 50.0069 85.5134 47.7449L68.3061 23.1703C66.7222 20.9083 63.6045 20.3585 61.3424 21.9424L23.6614 48.3269ZM52.8011 52.5198C52.9554 53.2034 53.3463 53.9931 53.9736 54.8891L56.4311 53.1683L56.0594 52.5559C55.6907 51.8794 55.586 51.1373 55.7452 50.3296L56.0052 49.046C56.2009 48.0315 56.2523 47.1992 56.1594 46.5489C56.062 45.8923 55.8229 45.2919 55.442 44.748C54.6041 43.5512 53.5822 42.8886 52.3763 42.7602C51.166 42.6253 49.8825 43.0328 48.5258 43.9828C47.1819 44.9239 46.3615 46.0133 46.0647 47.2511C45.7743 48.4845 46.0507 49.7168 46.8937 50.9481L49.6776 48.9989C49.3319 48.4779 49.199 47.9749 49.279 47.4897C49.3608 46.9937 49.6385 46.5799 50.1121 46.2483C51.1104 45.5493 51.9883 45.7405 52.7456 46.822C52.9965 47.1804 53.1402 47.59 53.1768 48.0508C53.2089 48.5052 53.1152 49.1955 52.8958 50.1217C52.6783 51.0369 52.6467 51.8363 52.8011 52.5198ZM55.4514 56.6726C55.3561 57.1494 55.4585 57.6022 55.7588 58.031C56.0545 58.4534 56.4395 58.7036 56.9138 58.7816C57.3945 58.8551 57.8684 58.7283 58.3355 58.4012C58.8027 58.0741 59.0808 57.6744 59.1697 57.202C59.265 56.7252 59.1647 56.2756 58.869 55.8532C58.5687 55.4244 58.1751 55.1755 57.688 55.1065C57.2029 55.0265 56.7331 55.1456 56.2787 55.4638C55.8244 55.782 55.5486 56.1849 55.4514 56.6726Z" fill="white"/>
<rect x="205" y="76.6411" width="41.2169" height="51.5211" rx="5.15211" transform="rotate(-35 205 76.6411)" stroke="white" stroke-width="2.57606"/>
<circle cx="237.293" cy="107.491" r="2.57605" transform="rotate(-35 237.293 107.491)" fill="white"/>
<circle cx="243.624" cy="103.058" r="2.57605" transform="rotate(-35 243.624 103.058)" fill="white"/>
<circle cx="249.954" cy="98.625" r="2.57605" transform="rotate(-35 249.954 98.625)" fill="white"/>
<circle cx="256.285" cy="94.1924" r="2.57605" transform="rotate(-35 256.285 94.1924)" fill="white"/>
<path fill-rule="evenodd" clip-rule="evenodd" d="M215.13 75.8379C213.964 76.6539 213.681 78.2602 214.497 79.4256L223.362 92.0867C224.179 93.2521 225.785 93.5353 226.95 92.7193L246.364 79.1257C247.529 78.3097 247.813 76.7034 246.997 75.538L238.131 62.8769C237.315 61.7115 235.709 61.4282 234.543 62.2443L215.13 75.8379ZM229.951 77.724C230.03 78.0762 230.232 78.483 230.555 78.9446L231.821 78.0581L231.63 77.7426C231.44 77.394 231.386 77.0117 231.468 76.5956L231.602 75.9342C231.703 75.4116 231.729 74.9827 231.681 74.6477C231.631 74.3094 231.508 74.0001 231.312 73.7198C230.88 73.1033 230.353 72.7619 229.732 72.6957C229.109 72.6262 228.447 72.8362 227.748 73.3256C227.056 73.8105 226.633 74.3717 226.48 75.0095C226.331 75.6449 226.473 76.2799 226.907 76.9142L228.342 75.9099C228.164 75.6416 228.095 75.3824 228.136 75.1324C228.178 74.8769 228.322 74.6637 228.566 74.4928C229.08 74.1327 229.532 74.2312 229.922 74.7884C230.052 74.9731 230.126 75.1841 230.145 75.4215C230.161 75.6556 230.113 76.0113 230 76.4884C229.888 76.96 229.871 77.3718 229.951 77.724ZM231.316 79.8635C231.267 80.1092 231.32 80.3425 231.475 80.5634C231.627 80.781 231.826 80.9099 232.07 80.9501C232.318 80.988 232.562 80.9227 232.802 80.7541C233.043 80.5856 233.186 80.3797 233.232 80.1363C233.281 79.8906 233.23 79.659 233.077 79.4414C232.923 79.2205 232.72 79.0922 232.469 79.0567C232.219 79.0155 231.977 79.0768 231.743 79.2408C231.509 79.4047 231.366 79.6123 231.316 79.8635Z" fill="white"/>
<rect x="147" y="194.886" width="80" height="100" rx="10" transform="rotate(-35 147 194.886)" stroke="white" stroke-width="5"/>
<circle cx="209.679" cy="254.763" r="5" transform="rotate(-35 209.679 254.763)" fill="white"/>
<circle cx="221.967" cy="246.16" r="5" transform="rotate(-35 221.967 246.16)" fill="white"/>
<circle cx="234.254" cy="237.556" r="5" transform="rotate(-35 234.254 237.556)" fill="white"/>
<circle cx="246.542" cy="228.952" r="5" transform="rotate(-35 246.542 228.952)" fill="white"/>
<path fill-rule="evenodd" clip-rule="evenodd" d="M166.661 193.327C164.399 194.911 163.85 198.029 165.434 200.291L182.641 224.865C184.225 227.127 187.342 227.677 189.604 226.093L227.285 199.709C229.548 198.125 230.097 195.007 228.513 192.745L211.306 168.17C209.722 165.908 206.604 165.359 204.342 166.942L166.661 193.327ZM195.801 197.52C195.955 198.203 196.346 198.993 196.974 199.889L199.431 198.168L199.059 197.556C198.691 196.879 198.586 196.137 198.745 195.33L199.005 194.046C199.201 193.032 199.252 192.199 199.159 191.549C199.062 190.892 198.823 190.292 198.442 189.748C197.604 188.551 196.582 187.889 195.376 187.76C194.166 187.625 192.883 188.033 191.526 188.983C190.182 189.924 189.362 191.013 189.065 192.251C188.774 193.485 189.051 194.717 189.894 195.948L192.678 193.999C192.332 193.478 192.199 192.975 192.279 192.49C192.361 191.994 192.639 191.58 193.112 191.248C194.11 190.549 194.988 190.74 195.746 191.822C195.996 192.18 196.14 192.59 196.177 193.051C196.209 193.505 196.115 194.196 195.896 195.122C195.678 196.037 195.647 196.836 195.801 197.52ZM198.451 201.673C198.356 202.149 198.459 202.602 198.759 203.031C199.055 203.453 199.44 203.704 199.914 203.782C200.394 203.855 200.868 203.728 201.336 203.401C201.803 203.074 202.081 202.674 202.17 202.202C202.265 201.725 202.165 201.276 201.869 200.853C201.569 200.424 201.175 200.176 200.688 200.106C200.203 200.027 199.733 200.146 199.279 200.464C198.824 200.782 198.549 201.185 198.451 201.673Z" fill="white"/>
<rect x="110" y="131.647" width="25.5358" height="31.9198" rx="3.19198" transform="rotate(-35 110 131.647)" stroke="white" stroke-width="1.59599"/>
<circle cx="130.007" cy="150.759" r="1.59599" transform="rotate(-35 130.007 150.759)" fill="white"/>
<circle cx="133.929" cy="148.013" r="1.59599" transform="rotate(-35 133.929 148.013)" fill="white"/>
<circle cx="137.851" cy="145.267" r="1.59599" transform="rotate(-35 137.851 145.267)" fill="white"/>
<circle cx="141.773" cy="142.521" r="1.59599" transform="rotate(-35 141.773 142.521)" fill="white"/>
<path fill-rule="evenodd" clip-rule="evenodd" d="M116.276 131.149C115.554 131.655 115.378 132.65 115.884 133.372L121.376 141.216C121.882 141.938 122.877 142.113 123.599 141.608L135.627 133.186C136.349 132.68 136.524 131.685 136.019 130.963L130.526 123.119C130.021 122.397 129.026 122.222 128.304 122.727L116.276 131.149ZM125.565 132.469C125.614 132.687 125.739 132.939 125.939 133.225L126.723 132.676L126.605 132.481C126.487 132.265 126.453 132.028 126.504 131.77L126.587 131.36C126.65 131.036 126.666 130.771 126.636 130.563C126.605 130.354 126.529 130.162 126.407 129.988C126.14 129.606 125.814 129.395 125.429 129.354C125.043 129.311 124.633 129.441 124.2 129.744C123.771 130.044 123.509 130.392 123.414 130.787C123.322 131.181 123.41 131.574 123.679 131.967L124.568 131.345C124.457 131.179 124.415 131.018 124.44 130.863C124.466 130.705 124.555 130.573 124.706 130.467C125.025 130.244 125.305 130.305 125.547 130.65C125.627 130.765 125.673 130.895 125.684 131.043C125.695 131.188 125.665 131.408 125.595 131.704C125.525 131.996 125.515 132.251 125.565 132.469ZM126.41 133.795C126.38 133.947 126.413 134.091 126.509 134.228C126.603 134.363 126.726 134.443 126.877 134.468C127.031 134.491 127.182 134.451 127.331 134.346C127.48 134.242 127.569 134.114 127.597 133.964C127.628 133.811 127.596 133.668 127.501 133.533C127.406 133.396 127.28 133.317 127.124 133.295C126.97 133.269 126.82 133.307 126.675 133.409C126.53 133.51 126.442 133.639 126.41 133.795Z" fill="white"/>
<rect x="301" y="124.886" width="80" height="100" rx="10" transform="rotate(-35 301 124.886)" stroke="white" stroke-width="5"/>
<circle cx="363.679" cy="184.763" r="5" transform="rotate(-35 363.679 184.763)" fill="white"/>
<circle cx="375.967" cy="176.16" r="5" transform="rotate(-35 375.967 176.16)" fill="white"/>
<circle cx="388.254" cy="167.556" r="5" transform="rotate(-35 388.254 167.556)" fill="white"/>
<circle cx="400.542" cy="158.952" r="5" transform="rotate(-35 400.542 158.952)" fill="white"/>
<path fill-rule="evenodd" clip-rule="evenodd" d="M320.661 123.327C318.399 124.911 317.85 128.029 319.434 130.291L336.641 154.865C338.225 157.127 341.342 157.677 343.604 156.093L381.285 129.709C383.548 128.125 384.097 125.007 382.513 122.745L365.306 98.1703C363.722 95.9083 360.604 95.3585 358.342 96.9424L320.661 123.327ZM349.801 127.52C349.955 128.203 350.346 128.993 350.974 129.889L353.431 128.168L353.059 127.556C352.691 126.879 352.586 126.137 352.745 125.33L353.005 124.046C353.201 123.032 353.252 122.199 353.159 121.549C353.062 120.892 352.823 120.292 352.442 119.748C351.604 118.551 350.582 117.889 349.376 117.76C348.166 117.625 346.883 118.033 345.526 118.983C344.182 119.924 343.362 121.013 343.065 122.251C342.774 123.485 343.051 124.717 343.894 125.948L346.678 123.999C346.332 123.478 346.199 122.975 346.279 122.49C346.361 121.994 346.639 121.58 347.112 121.248C348.11 120.549 348.988 120.74 349.746 121.822C349.996 122.18 350.14 122.59 350.177 123.051C350.209 123.505 350.115 124.196 349.896 125.122C349.678 126.037 349.647 126.836 349.801 127.52ZM352.451 131.673C352.356 132.149 352.459 132.602 352.759 133.031C353.055 133.453 353.44 133.704 353.914 133.782C354.394 133.855 354.868 133.728 355.336 133.401C355.803 133.074 356.081 132.674 356.17 132.202C356.265 131.725 356.165 131.276 355.869 130.853C355.569 130.424 355.175 130.176 354.688 130.106C354.203 130.027 353.733 130.146 353.279 130.464C352.824 130.782 352.549 131.185 352.451 131.673Z" fill="white"/>
</svg>
