<svg width="429" height="281" viewBox="0 0 429 281" fill="none" xmlns="http://www.w3.org/2000/svg">
<rect x="148" y="194.886" width="80" height="100" rx="10" transform="rotate(-35 148 194.886)" stroke="white" stroke-width="5"/>
<circle cx="210.679" cy="254.763" r="5" transform="rotate(-35 210.679 254.763)" fill="white"/>
<circle cx="222.967" cy="246.16" r="5" transform="rotate(-35 222.967 246.16)" fill="white"/>
<circle cx="235.254" cy="237.556" r="5" transform="rotate(-35 235.254 237.556)" fill="white"/>
<circle cx="247.542" cy="228.952" r="5" transform="rotate(-35 247.542 228.952)" fill="white"/>
<rect x="163.566" y="196.195" width="56" height="40" rx="5" transform="rotate(-35 163.566 196.195)" fill="white" stroke="white" stroke-width="5"/>
<rect x="206" y="76.8438" width="41.5704" height="51.963" rx="5.1963" transform="rotate(-35 206 76.8438)" stroke="white" stroke-width="2.59815"/>
<circle cx="238.57" cy="107.958" r="2.59815" transform="rotate(-35 238.57 107.958)" fill="white"/>
<circle cx="244.955" cy="103.487" r="2.59815" transform="rotate(-35 244.955 103.487)" fill="white"/>
<circle cx="251.34" cy="99.0162" r="2.59815" transform="rotate(-35 251.34 99.0162)" fill="white"/>
<circle cx="257.725" cy="94.5455" r="2.59815" transform="rotate(-35 257.725 94.5455)" fill="white"/>
<rect x="214.088" y="77.5238" width="29.0993" height="20.7852" rx="2.59815" transform="rotate(-35 214.088 77.5238)" fill="white" stroke="white" stroke-width="2.59815"/>
<rect x="111" y="131.77" width="25.5059" height="31.8824" rx="3.18824" transform="rotate(-35 111 131.77)" stroke="white" stroke-width="1.59412"/>
<circle cx="130.984" cy="150.861" r="1.59412" transform="rotate(-35 130.984 150.861)" fill="white"/>
<circle cx="134.902" cy="148.117" r="1.59412" transform="rotate(-35 134.902 148.117)" fill="white"/>
<circle cx="138.819" cy="145.375" r="1.59412" transform="rotate(-35 138.819 145.375)" fill="white"/>
<circle cx="142.736" cy="142.632" r="1.59412" transform="rotate(-35 142.736 142.632)" fill="white"/>
<rect x="115.963" y="132.188" width="17.8541" height="12.7529" rx="1.59412" transform="rotate(-35 115.963 132.188)" fill="white" stroke="white" stroke-width="1.59412"/>
<rect x="4" y="49.8861" width="80" height="100" rx="10" transform="rotate(-35 4 49.8861)" stroke="white" stroke-width="5"/>
<circle cx="66.6795" cy="109.763" r="5" transform="rotate(-35 66.6795 109.763)" fill="white"/>
<circle cx="78.9668" cy="101.16" r="5" transform="rotate(-35 78.9668 101.16)" fill="white"/>
<circle cx="91.2542" cy="92.5559" r="5" transform="rotate(-35 91.2542 92.5559)" fill="white"/>
<circle cx="103.542" cy="83.9522" r="5" transform="rotate(-35 103.542 83.9522)" fill="white"/>
<rect x="19.5657" y="51.1947" width="56" height="40" rx="5" transform="rotate(-35 19.5657 51.1947)" fill="white" stroke="white" stroke-width="5"/>
<rect x="302" y="124.886" width="80" height="100" rx="10" transform="rotate(-35 302 124.886)" stroke="white" stroke-width="5"/>
<circle cx="364.679" cy="184.763" r="5" transform="rotate(-35 364.679 184.763)" fill="white"/>
<circle cx="376.967" cy="176.16" r="5" transform="rotate(-35 376.967 176.16)" fill="white"/>
<circle cx="389.254" cy="167.556" r="5" transform="rotate(-35 389.254 167.556)" fill="white"/>
<circle cx="401.541" cy="158.952" r="5" transform="rotate(-35 401.541 158.952)" fill="white"/>
<rect x="317.565" y="126.195" width="56" height="40" rx="5" transform="rotate(-35 317.565 126.195)" fill="white" stroke="white" stroke-width="5"/>
</svg>
